<mxfile host="app.diagrams.net" modified="2023-04-30T18:11:44.871Z" agent="Mozilla/5.0 (Windows NT 10.0; Win64; x64) AppleWebKit/537.36 (KHTML, like Gecko) Chrome/112.0.0.0 Safari/537.36 Edg/112.0.1722.58" etag="KCp6sjtYcg20LOSeUlsR" version="21.2.3" type="github">
  <diagram name="Page-1" id="13e1069c-82ec-6db2-03f1-153e76fe0fe0">
    <mxGraphModel dx="998" dy="487" grid="0" gridSize="10" guides="1" tooltips="1" connect="1" arrows="1" fold="1" page="1" pageScale="1" pageWidth="1100" pageHeight="850" background="none" math="0" shadow="0">
      <root>
        <mxCell id="0" />
        <mxCell id="1" parent="0" />
        <mxCell id="7baba1c4bc27f4b0-2" value="个人信息管理类" style="shape=umlLifeline;perimeter=lifelinePerimeter;whiteSpace=wrap;html=1;container=1;collapsible=0;recursiveResize=0;outlineConnect=0;rounded=1;shadow=0;comic=0;labelBackgroundColor=none;strokeWidth=1;fontFamily=Verdana;fontSize=12;align=center;" parent="1" vertex="1">
          <mxGeometry x="300" y="75" width="140" height="435" as="geometry" />
        </mxCell>
        <mxCell id="7baba1c4bc27f4b0-10" value="" style="html=1;points=[];perimeter=orthogonalPerimeter;rounded=0;shadow=0;comic=0;labelBackgroundColor=none;strokeWidth=1;fontFamily=Verdana;fontSize=12;align=center;" parent="7baba1c4bc27f4b0-2" vertex="1">
          <mxGeometry x="65" y="110" width="10" height="60" as="geometry" />
        </mxCell>
        <mxCell id="3fmQPRALQ03_wHgVez8e-5" value="" style="endArrow=open;endFill=1;endSize=12;html=1;rounded=0;fontSize=12;curved=1;" edge="1" parent="7baba1c4bc27f4b0-2">
          <mxGeometry width="160" relative="1" as="geometry">
            <mxPoint x="70" y="135" as="sourcePoint" />
            <mxPoint x="215" y="135" as="targetPoint" />
          </mxGeometry>
        </mxCell>
        <mxCell id="3fmQPRALQ03_wHgVez8e-19" value="" style="endArrow=open;endFill=1;endSize=12;html=1;rounded=0;fontSize=12;curved=1;" edge="1" parent="7baba1c4bc27f4b0-2" target="7baba1c4bc27f4b0-3">
          <mxGeometry width="160" relative="1" as="geometry">
            <mxPoint x="-10" y="285" as="sourcePoint" />
            <mxPoint x="150" y="285" as="targetPoint" />
          </mxGeometry>
        </mxCell>
        <mxCell id="3fmQPRALQ03_wHgVez8e-20" value="&lt;font style=&quot;font-size: 11px;&quot;&gt;8.更新管理员的数据信息&lt;/font&gt;" style="edgeLabel;html=1;align=center;verticalAlign=middle;resizable=0;points=[];fontSize=16;" vertex="1" connectable="0" parent="3fmQPRALQ03_wHgVez8e-19">
          <mxGeometry x="-0.2233" y="1" relative="1" as="geometry">
            <mxPoint x="18" y="11" as="offset" />
          </mxGeometry>
        </mxCell>
        <mxCell id="3fmQPRALQ03_wHgVez8e-27" value="" style="html=1;points=[];perimeter=orthogonalPerimeter;outlineConnect=0;targetShapes=umlLifeline;portConstraint=eastwest;newEdgeStyle={&quot;edgeStyle&quot;:&quot;elbowEdgeStyle&quot;,&quot;elbow&quot;:&quot;vertical&quot;,&quot;curved&quot;:0,&quot;rounded&quot;:0};fontSize=16;" vertex="1" parent="7baba1c4bc27f4b0-2">
          <mxGeometry x="20" y="324" width="10" height="50" as="geometry" />
        </mxCell>
        <mxCell id="3fmQPRALQ03_wHgVez8e-29" value="11.返回更新的数据" style="endArrow=open;endSize=12;dashed=1;html=1;rounded=0;fontSize=12;curved=1;" edge="1" parent="7baba1c4bc27f4b0-2">
          <mxGeometry x="-0.0051" y="17" width="160" relative="1" as="geometry">
            <mxPoint x="221" y="345" as="sourcePoint" />
            <mxPoint x="26" y="345" as="targetPoint" />
            <Array as="points">
              <mxPoint x="162" y="345" />
            </Array>
            <mxPoint as="offset" />
          </mxGeometry>
        </mxCell>
        <mxCell id="7baba1c4bc27f4b0-3" value="个人信息业务逻辑类" style="shape=umlLifeline;perimeter=lifelinePerimeter;whiteSpace=wrap;html=1;container=1;collapsible=0;recursiveResize=0;outlineConnect=0;rounded=1;shadow=0;comic=0;labelBackgroundColor=none;strokeWidth=1;fontFamily=Verdana;fontSize=12;align=center;" parent="1" vertex="1">
          <mxGeometry x="470" y="75" width="100" height="415" as="geometry" />
        </mxCell>
        <mxCell id="7baba1c4bc27f4b0-13" value="" style="html=1;points=[];perimeter=orthogonalPerimeter;rounded=0;shadow=0;comic=0;labelBackgroundColor=none;strokeWidth=1;fontFamily=Verdana;fontSize=12;align=center;" parent="7baba1c4bc27f4b0-3" vertex="1">
          <mxGeometry x="45" y="130" width="10" height="110" as="geometry" />
        </mxCell>
        <mxCell id="3fmQPRALQ03_wHgVez8e-4" value="" style="endArrow=open;endFill=1;endSize=12;html=1;rounded=0;fontSize=12;curved=1;" edge="1" parent="7baba1c4bc27f4b0-3" target="7baba1c4bc27f4b0-4">
          <mxGeometry width="160" relative="1" as="geometry">
            <mxPoint x="50" y="145" as="sourcePoint" />
            <mxPoint x="210" y="145" as="targetPoint" />
          </mxGeometry>
        </mxCell>
        <mxCell id="3fmQPRALQ03_wHgVez8e-22" value="" style="html=1;points=[];perimeter=orthogonalPerimeter;outlineConnect=0;targetShapes=umlLifeline;portConstraint=eastwest;newEdgeStyle={&quot;edgeStyle&quot;:&quot;elbowEdgeStyle&quot;,&quot;elbow&quot;:&quot;vertical&quot;,&quot;curved&quot;:0,&quot;rounded&quot;:0};fontSize=16;" vertex="1" parent="7baba1c4bc27f4b0-3">
          <mxGeometry x="45" y="275" width="10" height="79" as="geometry" />
        </mxCell>
        <mxCell id="3fmQPRALQ03_wHgVez8e-25" value="" style="endArrow=open;endFill=1;endSize=12;html=1;rounded=0;fontSize=12;curved=1;" edge="1" parent="7baba1c4bc27f4b0-3" target="7baba1c4bc27f4b0-4">
          <mxGeometry width="160" relative="1" as="geometry">
            <mxPoint x="50" y="295" as="sourcePoint" />
            <mxPoint x="210" y="295" as="targetPoint" />
          </mxGeometry>
        </mxCell>
        <mxCell id="7baba1c4bc27f4b0-4" value="数据库" style="shape=umlLifeline;perimeter=lifelinePerimeter;whiteSpace=wrap;html=1;container=1;collapsible=0;recursiveResize=0;outlineConnect=0;rounded=1;shadow=0;comic=0;labelBackgroundColor=none;strokeWidth=1;fontFamily=Verdana;fontSize=12;align=center;" parent="1" vertex="1">
          <mxGeometry x="670" y="70" width="100" height="430" as="geometry" />
        </mxCell>
        <mxCell id="7baba1c4bc27f4b0-16" value="" style="html=1;points=[];perimeter=orthogonalPerimeter;rounded=0;shadow=0;comic=0;labelBackgroundColor=none;strokeWidth=1;fontFamily=Verdana;fontSize=12;align=center;" parent="7baba1c4bc27f4b0-4" vertex="1">
          <mxGeometry x="45" y="125" width="10" height="95" as="geometry" />
        </mxCell>
        <mxCell id="3fmQPRALQ03_wHgVez8e-23" value="" style="html=1;points=[];perimeter=orthogonalPerimeter;outlineConnect=0;targetShapes=umlLifeline;portConstraint=eastwest;newEdgeStyle={&quot;edgeStyle&quot;:&quot;elbowEdgeStyle&quot;,&quot;elbow&quot;:&quot;vertical&quot;,&quot;curved&quot;:0,&quot;rounded&quot;:0};fontSize=16;" vertex="1" parent="7baba1c4bc27f4b0-4">
          <mxGeometry x="45" y="275" width="10" height="85" as="geometry" />
        </mxCell>
        <mxCell id="7baba1c4bc27f4b0-8" value="个人信息界面" style="shape=umlLifeline;perimeter=lifelinePerimeter;whiteSpace=wrap;html=1;container=1;collapsible=0;recursiveResize=0;outlineConnect=0;rounded=1;shadow=0;comic=0;labelBackgroundColor=none;strokeWidth=1;fontFamily=Verdana;fontSize=12;align=center;" parent="1" vertex="1">
          <mxGeometry x="110" y="70" width="110" height="410" as="geometry" />
        </mxCell>
        <mxCell id="7baba1c4bc27f4b0-9" value="" style="html=1;points=[];perimeter=orthogonalPerimeter;rounded=0;shadow=0;comic=0;labelBackgroundColor=none;strokeWidth=1;fontFamily=Verdana;fontSize=12;align=center;" parent="7baba1c4bc27f4b0-8" vertex="1">
          <mxGeometry x="50" y="90" width="10" height="70" as="geometry" />
        </mxCell>
        <mxCell id="3fmQPRALQ03_wHgVez8e-6" value="" style="endArrow=open;endFill=1;endSize=12;html=1;rounded=0;fontSize=12;curved=1;" edge="1" parent="7baba1c4bc27f4b0-8" target="7baba1c4bc27f4b0-2">
          <mxGeometry width="160" relative="1" as="geometry">
            <mxPoint x="60" y="124.5" as="sourcePoint" />
            <mxPoint x="220" y="124.5" as="targetPoint" />
          </mxGeometry>
        </mxCell>
        <mxCell id="3fmQPRALQ03_wHgVez8e-7" value="" style="endArrow=open;endFill=1;endSize=12;html=1;rounded=0;fontSize=12;curved=1;" edge="1" parent="7baba1c4bc27f4b0-8">
          <mxGeometry width="160" relative="1" as="geometry">
            <mxPoint x="-60" y="120" as="sourcePoint" />
            <mxPoint x="50" y="120" as="targetPoint" />
            <Array as="points">
              <mxPoint x="-60" y="120" />
            </Array>
          </mxGeometry>
        </mxCell>
        <mxCell id="o-sgw39kwa4JU8p-iWWu-12" value="&lt;div style=&quot;text-align: center;&quot;&gt;&lt;span style=&quot;background-color: initial;&quot;&gt;&lt;font style=&quot;font-size: 11px;&quot; face=&quot;Verdana&quot;&gt;1.打开个人信息管理&lt;/font&gt;&lt;/span&gt;&lt;/div&gt;" style="text;whiteSpace=wrap;html=1;fontSize=16;" parent="7baba1c4bc27f4b0-8" vertex="1">
          <mxGeometry x="-50" y="70" width="90" height="30" as="geometry" />
        </mxCell>
        <mxCell id="3fmQPRALQ03_wHgVez8e-1" style="edgeStyle=none;curved=1;rounded=0;orthogonalLoop=1;jettySize=auto;html=1;exitX=0.5;exitY=1;exitDx=0;exitDy=0;fontSize=12;startSize=8;endSize=8;" edge="1" parent="7baba1c4bc27f4b0-8" source="o-sgw39kwa4JU8p-iWWu-12" target="o-sgw39kwa4JU8p-iWWu-12">
          <mxGeometry relative="1" as="geometry" />
        </mxCell>
        <mxCell id="3fmQPRALQ03_wHgVez8e-24" value="" style="html=1;points=[];perimeter=orthogonalPerimeter;outlineConnect=0;targetShapes=umlLifeline;portConstraint=eastwest;newEdgeStyle={&quot;edgeStyle&quot;:&quot;elbowEdgeStyle&quot;,&quot;elbow&quot;:&quot;vertical&quot;,&quot;curved&quot;:0,&quot;rounded&quot;:0};fontSize=16;" vertex="1" parent="7baba1c4bc27f4b0-8">
          <mxGeometry x="50" y="315" width="10" height="58" as="geometry" />
        </mxCell>
        <mxCell id="3fmQPRALQ03_wHgVez8e-30" value="12.发送成功更新管理员个人&lt;br&gt;信息或者密码" style="endArrow=open;endSize=12;dashed=1;html=1;rounded=0;fontSize=12;curved=1;" edge="1" parent="7baba1c4bc27f4b0-8">
          <mxGeometry x="-0.006" y="50" width="160" relative="1" as="geometry">
            <mxPoint x="214" y="355" as="sourcePoint" />
            <mxPoint x="47" y="355" as="targetPoint" />
            <Array as="points">
              <mxPoint x="183" y="355" />
            </Array>
            <mxPoint as="offset" />
          </mxGeometry>
        </mxCell>
        <mxCell id="o-sgw39kwa4JU8p-iWWu-2" value="" style="shape=umlLifeline;perimeter=lifelinePerimeter;whiteSpace=wrap;html=1;container=1;dropTarget=0;collapsible=0;recursiveResize=0;outlineConnect=0;portConstraint=eastwest;newEdgeStyle={&quot;edgeStyle&quot;:&quot;elbowEdgeStyle&quot;,&quot;elbow&quot;:&quot;vertical&quot;,&quot;curved&quot;:0,&quot;rounded&quot;:0};participant=umlActor;fontSize=16;" parent="1" vertex="1">
          <mxGeometry x="20" y="80" width="50" height="400" as="geometry" />
        </mxCell>
        <mxCell id="o-sgw39kwa4JU8p-iWWu-4" value="" style="html=1;points=[];perimeter=orthogonalPerimeter;outlineConnect=0;targetShapes=umlLifeline;portConstraint=eastwest;newEdgeStyle={&quot;edgeStyle&quot;:&quot;elbowEdgeStyle&quot;,&quot;elbow&quot;:&quot;vertical&quot;,&quot;curved&quot;:0,&quot;rounded&quot;:0};fontSize=16;" parent="o-sgw39kwa4JU8p-iWWu-2" vertex="1">
          <mxGeometry x="20" y="80" width="10" height="70" as="geometry" />
        </mxCell>
        <mxCell id="o-sgw39kwa4JU8p-iWWu-3" value="管理人员" style="text;html=1;align=center;verticalAlign=middle;resizable=0;points=[];autosize=1;strokeColor=none;fillColor=none;fontSize=16;" parent="1" vertex="1">
          <mxGeometry y="110" width="90" height="30" as="geometry" />
        </mxCell>
        <mxCell id="o-sgw39kwa4JU8p-iWWu-13" value="&lt;div style=&quot;text-align: center;&quot;&gt;&lt;font face=&quot;Verdana&quot;&gt;&lt;span style=&quot;font-size: 12px;&quot;&gt;2.选中要修改个人信息数据或者密码&lt;/span&gt;&lt;/font&gt;&lt;/div&gt;" style="text;whiteSpace=wrap;html=1;fontSize=16;" parent="1" vertex="1">
          <mxGeometry x="170" y="150" width="190" height="30" as="geometry" />
        </mxCell>
        <mxCell id="o-sgw39kwa4JU8p-iWWu-14" value="&lt;div style=&quot;text-align: center;&quot;&gt;&lt;span style=&quot;background-color: initial; font-size: 12px;&quot;&gt;&lt;font face=&quot;Verdana&quot;&gt;3.查询个人信息或者密码&lt;/font&gt;&lt;/span&gt;&lt;/div&gt;" style="text;whiteSpace=wrap;html=1;fontSize=16;" parent="1" vertex="1">
          <mxGeometry x="380" y="170" width="140" height="40" as="geometry" />
        </mxCell>
        <mxCell id="3fmQPRALQ03_wHgVez8e-3" value="5.返回查询管理表信息" style="endArrow=open;endSize=12;dashed=1;html=1;rounded=0;fontSize=12;curved=1;" edge="1" parent="1" source="7baba1c4bc27f4b0-4">
          <mxGeometry x="0.1557" y="-10" width="160" relative="1" as="geometry">
            <mxPoint x="640" y="310" as="sourcePoint" />
            <mxPoint x="530" y="260" as="targetPoint" />
            <Array as="points">
              <mxPoint x="630" y="260" />
            </Array>
            <mxPoint x="1" as="offset" />
          </mxGeometry>
        </mxCell>
        <mxCell id="o-sgw39kwa4JU8p-iWWu-17" value="&lt;div style=&quot;text-align: center;&quot;&gt;&lt;font face=&quot;Verdana&quot;&gt;&lt;span style=&quot;font-size: 12px;&quot;&gt;4.调用添加数据的SQL语句&lt;/span&gt;&lt;/font&gt;&lt;/div&gt;" style="text;whiteSpace=wrap;html=1;fontSize=16;" parent="1" vertex="1">
          <mxGeometry x="550" y="180" width="150" height="40" as="geometry" />
        </mxCell>
        <mxCell id="3fmQPRALQ03_wHgVez8e-12" value="" style="html=1;points=[];perimeter=orthogonalPerimeter;outlineConnect=0;targetShapes=umlLifeline;portConstraint=eastwest;newEdgeStyle={&quot;edgeStyle&quot;:&quot;elbowEdgeStyle&quot;,&quot;elbow&quot;:&quot;vertical&quot;,&quot;curved&quot;:0,&quot;rounded&quot;:0};fontSize=16;" vertex="1" parent="1">
          <mxGeometry x="280" y="280" width="10" height="80" as="geometry" />
        </mxCell>
        <mxCell id="3fmQPRALQ03_wHgVez8e-13" value="6.返回查询结果" style="endArrow=open;endSize=12;dashed=1;html=1;rounded=0;fontSize=12;curved=1;" edge="1" parent="1" source="7baba1c4bc27f4b0-3" target="3fmQPRALQ03_wHgVez8e-12">
          <mxGeometry x="0.3587" y="-12" width="160" relative="1" as="geometry">
            <mxPoint x="160" y="490" as="sourcePoint" />
            <mxPoint x="320" y="490" as="targetPoint" />
            <Array as="points" />
            <mxPoint as="offset" />
          </mxGeometry>
        </mxCell>
        <mxCell id="3fmQPRALQ03_wHgVez8e-18" value="7.检验数据的正确性" style="endArrow=open;endSize=12;dashed=1;html=1;rounded=0;fontSize=12;curved=1;" edge="1" parent="1" source="3fmQPRALQ03_wHgVez8e-12" target="3fmQPRALQ03_wHgVez8e-12">
          <mxGeometry x="-0.0333" y="60" width="160" relative="1" as="geometry">
            <mxPoint x="230" y="430" as="sourcePoint" />
            <mxPoint x="300" y="430" as="targetPoint" />
            <Array as="points">
              <mxPoint x="340" y="320" />
            </Array>
            <mxPoint as="offset" />
          </mxGeometry>
        </mxCell>
        <mxCell id="3fmQPRALQ03_wHgVez8e-26" value="&lt;font style=&quot;font-size: 12px;&quot;&gt;9.调用更新数据的SQL语句&lt;/font&gt;" style="text;html=1;align=center;verticalAlign=middle;resizable=0;points=[];autosize=1;strokeColor=none;fillColor=none;fontSize=16;" vertex="1" parent="1">
          <mxGeometry x="545" y="348" width="170" height="30" as="geometry" />
        </mxCell>
        <mxCell id="3fmQPRALQ03_wHgVez8e-28" value="10.返回更新数据的条数" style="endArrow=open;endSize=12;dashed=1;html=1;rounded=0;fontSize=12;curved=1;" edge="1" parent="1" source="3fmQPRALQ03_wHgVez8e-23" target="7baba1c4bc27f4b0-3">
          <mxGeometry x="-0.1714" y="-16" width="160" relative="1" as="geometry">
            <mxPoint x="534" y="454" as="sourcePoint" />
            <mxPoint x="694" y="454" as="targetPoint" />
            <Array as="points">
              <mxPoint x="656" y="419" />
            </Array>
            <mxPoint as="offset" />
          </mxGeometry>
        </mxCell>
      </root>
    </mxGraphModel>
  </diagram>
</mxfile>
